    <svg xmlns="http://www.w3.org/2000/svg" class="d-none">
        <symbol id="calendar3" viewBox="0 0 16 16">
            <path
                d="M14 0H2a2 2 0 0 0-2 2v12a2 2 0 0 0 2 2h12a2 2 0 0 0 2-2V2a2 2 0 0 0-2-2zM1 3.857C1 3.384 1.448 3 2 3h12c.552 0 1 .384 1 .857v10.286c0 .473-.448.857-1 .857H2c-.552 0-1-.384-1-.857V3.857z" />
            <path
                d="M6.5 7a1 1 0 1 0 0-2 1 1 0 0 0 0 2zm3 0a1 1 0 1 0 0-2 1 1 0 0 0 0 2zm3 0a1 1 0 1 0 0-2 1 1 0 0 0 0 2zm-9 3a1 1 0 1 0 0-2 1 1 0 0 0 0 2zm3 0a1 1 0 1 0 0-2 1 1 0 0 0 0 2zm3 0a1 1 0 1 0 0-2 1 1 0 0 0 0 2zm3 0a1 1 0 1 0 0-2 1 1 0 0 0 0 2zm-9 3a1 1 0 1 0 0-2 1 1 0 0 0 0 2zm3 0a1 1 0 1 0 0-2 1 1 0 0 0 0 2zm3 0a1 1 0 1 0 0-2 1 1 0 0 0 0 2z" />
        </symbol>
        <symbol id="cart" viewBox="0 0 16 16">
            <path
                d="M0 1.5A.5.5 0 0 1 .5 1H2a.5.5 0 0 1 .485.379L2.89 3H14.5a.5.5 0 0 1 .49.598l-1 5a.5.5 0 0 1-.465.401l-9.397.472L4.415 11H13a.5.5 0 0 1 0 1H4a.5.5 0 0 1-.491-.408L2.01 3.607 1.61 2H.5a.5.5 0 0 1-.5-.5zM3.102 4l.84 4.479 9.144-.459L13.89 4H3.102zM5 12a2 2 0 1 0 0 4 2 2 0 0 0 0-4zm7 0a2 2 0 1 0 0 4 2 2 0 0 0 0-4zm-7 1a1 1 0 1 1 0 2 1 1 0 0 1 0-2zm7 0a1 1 0 1 1 0 2 1 1 0 0 1 0-2z" />
        </symbol>
        <symbol id="chevron-right" viewBox="0 0 16 16">
            <path fill-rule="evenodd"
                d="M4.646 1.646a.5.5 0 0 1 .708 0l6 6a.5.5 0 0 1 0 .708l-6 6a.5.5 0 0 1-.708-.708L10.293 8 4.646 2.354a.5.5 0 0 1 0-.708z" />
        </symbol>
        <symbol id="door-closed" viewBox="0 0 16 16">
            <path d="M3 2a1 1 0 0 1 1-1h8a1 1 0 0 1 1 1v13h1.5a.5.5 0 0 1 0 1h-13a.5.5 0 0 1 0-1H3V2zm1 13h8V2H4v13z" />
            <path d="M9 9a1 1 0 1 0 2 0 1 1 0 0 0-2 0z" />
        </symbol>
        <symbol id="file-earmark" viewBox="0 0 16 16">
            <path
                d="M14 4.5V14a2 2 0 0 1-2 2H4a2 2 0 0 1-2-2V2a2 2 0 0 1 2-2h5.5L14 4.5zm-3 0A1.5 1.5 0 0 1 9.5 3V1H4a1 1 0 0 0-1 1v12a1 1 0 0 0 1 1h8a1 1 0 0 0 1-1V4.5h-2z" />
        </symbol>
        <symbol id="file-earmark-text" viewBox="0 0 16 16">
            <path
                d="M5.5 7a.5.5 0 0 0 0 1h5a.5.5 0 0 0 0-1h-5zM5 9.5a.5.5 0 0 1 .5-.5h5a.5.5 0 0 1 0 1h-5a.5.5 0 0 1-.5-.5zm0 2a.5.5 0 0 1 .5-.5h2a.5.5 0 0 1 0 1h-2a.5.5 0 0 1-.5-.5z" />
            <path
                d="M9.5 0H4a2 2 0 0 0-2 2v12a2 2 0 0 0 2 2h8a2 2 0 0 0 2-2V4.5L9.5 0zm0 1v2A1.5 1.5 0 0 0 11 4.5h2V14a1 1 0 0 1-1 1H4a1 1 0 0 1-1-1V2a1 1 0 0 1 1-1h5.5z" />
        </symbol>
        <symbol id="gear-wide-connected" viewBox="0 0 16 16">
            <path
                d="M7.068.727c.243-.97 1.62-.97 1.864 0l.071.286a.96.96 0 0 0 1.622.434l.205-.211c.695-.719 1.888-.03 1.613.931l-.08.284a.96.96 0 0 0 1.187 1.187l.283-.081c.96-.275 1.65.918.931 1.613l-.211.205a.96.96 0 0 0 .434 1.622l.286.071c.97.243.97 1.62 0 1.864l-.286.071a.96.96 0 0 0-.434 1.622l.211.205c.719.695.03 1.888-.931 1.613l-.284-.08a.96.96 0 0 0-1.187 1.187l.081.283c.275.96-.918 1.65-1.613.931l-.205-.211a.96.96 0 0 0-1.622.434l-.071.286c-.243.97-1.62.97-1.864 0l-.071-.286a.96.96 0 0 0-1.622-.434l-.205.211c-.695.719-1.888.03-1.613-.931l.08-.284a.96.96 0 0 0-1.186-1.187l-.284.081c-.96.275-1.65-.918-.931-1.613l.211-.205a.96.96 0 0 0-.434-1.622l-.286-.071c-.97-.243-.97-1.62 0-1.864l.286-.071a.96.96 0 0 0 .434-1.622l-.211-.205c-.719-.695-.03-1.888.931-1.613l.284.08a.96.96 0 0 0 1.187-1.186l-.081-.284c-.275-.96.918-1.65 1.613-.931l.205.211a.96.96 0 0 0 1.622-.434l.071-.286zM12.973 8.5H8.25l-2.834 3.779A4.998 4.998 0 0 0 12.973 8.5zm0-1a4.998 4.998 0 0 0-7.557-3.779l2.834 3.78h4.723zM5.048 3.967c-.03.021-.058.043-.087.065l.087-.065zm-.431.355A4.984 4.984 0 0 0 3.002 8c0 1.455.622 2.765 1.615 3.678L7.375 8 4.617 4.322zm.344 7.646.087.065-.087-.065z" />
        </symbol>
        <symbol id="graph-up" viewBox="0 0 16 16">
            <path fill-rule="evenodd"
                d="M0 0h1v15h15v1H0V0Zm14.817 3.113a.5.5 0 0 1 .07.704l-4.5 5.5a.5.5 0 0 1-.74.037L7.06 6.767l-3.656 5.027a.5.5 0 0 1-.808-.588l4-5.5a.5.5 0 0 1 .758-.06l2.609 2.61 4.15-5.073a.5.5 0 0 1 .704-.07Z" />
        </symbol>
        <symbol id="house-fill" viewBox="0 0 16 16">
            <path
                d="M8.707 1.5a1 1 0 0 0-1.414 0L.646 8.146a.5.5 0 0 0 .708.708L8 2.207l6.646 6.647a.5.5 0 0 0 .708-.708L13 5.793V2.5a.5.5 0 0 0-.5-.5h-1a.5.5 0 0 0-.5.5v1.293L8.707 1.5Z" />
            <path d="m8 3.293 6 6V13.5a1.5 1.5 0 0 1-1.5 1.5h-9A1.5 1.5 0 0 1 2 13.5V9.293l6-6Z" />
        </symbol>
        <symbol id="list" viewBox="0 0 16 16">
            <path fill-rule="evenodd"
                d="M2.5 12a.5.5 0 0 1 .5-.5h10a.5.5 0 0 1 0 1H3a.5.5 0 0 1-.5-.5zm0-4a.5.5 0 0 1 .5-.5h10a.5.5 0 0 1 0 1H3a.5.5 0 0 1-.5-.5zm0-4a.5.5 0 0 1 .5-.5h10a.5.5 0 0 1 0 1H3a.5.5 0 0 1-.5-.5z" />
        </symbol>
        <symbol id="people" viewBox="0 0 16 16">
            <path
                d="M15 14s1 0 1-1-1-4-5-4-5 3-5 4 1 1 1 1h8Zm-7.978-1A.261.261 0 0 1 7 12.996c.001-.264.167-1.03.76-1.72C8.312 10.629 9.282 10 11 10c1.717 0 2.687.63 3.24 1.276.593.69.758 1.457.76 1.72l-.008.002a.274.274 0 0 1-.014.002H7.022ZM11 7a2 2 0 1 0 0-4 2 2 0 0 0 0 4Zm3-2a3 3 0 1 1-6 0 3 3 0 0 1 6 0ZM6.936 9.28a5.88 5.88 0 0 0-1.23-.247A7.35 7.35 0 0 0 5 9c-4 0-5 3-5 4 0 .667.333 1 1 1h4.216A2.238 2.238 0 0 1 5 13c0-1.01.377-2.042 1.09-2.904.243-.294.526-.569.846-.816ZM4.92 10A5.493 5.493 0 0 0 4 13H1c0-.26.164-1.03.76-1.724.545-.636 1.492-1.256 3.16-1.275ZM1.5 5.5a3 3 0 1 1 6 0 3 3 0 0 1-6 0Zm3-2a2 2 0 1 0 0 4 2 2 0 0 0 0-4Z" />
        </symbol>
        <symbol id="plus-circle" viewBox="0 0 16 16">
            <path d="M8 15A7 7 0 1 1 8 1a7 7 0 0 1 0 14zm0 1A8 8 0 1 0 8 0a8 8 0 0 0 0 16z" />
            <path
                d="M8 4a.5.5 0 0 1 .5.5v3h3a.5.5 0 0 1 0 1h-3v3a.5.5 0 0 1-1 0v-3h-3a.5.5 0 0 1 0-1h3v-3A.5.5 0 0 1 8 4z" />
        </symbol>
        <symbol id="puzzle" viewBox="0 0 16 16">
            <path
                d="M3.112 3.645A1.5 1.5 0 0 1 4.605 2H7a.5.5 0 0 1 .5.5v.382c0 .696-.497 1.182-.872 1.469a.459.459 0 0 0-.115.118.113.113 0 0 0-.012.025L6.5 4.5v.003l.003.01c.004.01.014.028.036.053a.86.86 0 0 0 .27.194C7.09 4.9 7.51 5 8 5c.492 0 .912-.1 1.19-.24a.86.86 0 0 0 .271-.194.213.213 0 0 0 .039-.063v-.009a.112.112 0 0 0-.012-.025.459.459 0 0 0-.115-.118c-.375-.287-.872-.773-.872-1.469V2.5A.5.5 0 0 1 9 2h2.395a1.5 1.5 0 0 1 1.493 1.645L12.645 6.5h.237c.195 0 .42-.147.675-.48.21-.274.528-.52.943-.52.568 0 .947.447 1.154.862C15.877 6.807 16 7.387 16 8s-.123 1.193-.346 1.638c-.207.415-.586.862-1.154.862-.415 0-.733-.246-.943-.52-.255-.333-.48-.48-.675-.48h-.237l.243 2.855A1.5 1.5 0 0 1 11.395 14H9a.5.5 0 0 1-.5-.5v-.382c0-.696.497-1.182.872-1.469a.459.459 0 0 0 .115-.118.113.113 0 0 0 .012-.025L9.5 11.5v-.003a.214.214 0 0 0-.039-.064.859.859 0 0 0-.27-.193C8.91 11.1 8.49 11 8 11c-.491 0-.912.1-1.19.24a.859.859 0 0 0-.271.194.214.214 0 0 0-.039.063v.003l.001.006a.113.113 0 0 0 .012.025c.016.027.05.068.115.118.375.287.872.773.872 1.469v.382a.5.5 0 0 1-.5.5H4.605a1.5 1.5 0 0 1-1.493-1.645L3.356 9.5h-.238c-.195 0-.42.147-.675.48-.21.274-.528.52-.943.52-.568 0-.947-.447-1.154-.862C.123 9.193 0 8.613 0 8s.123-1.193.346-1.638C.553 5.947.932 5.5 1.5 5.5c.415 0 .733.246.943.52.255.333.48.48.675.48h.238l-.244-2.855zM4.605 3a.5.5 0 0 0-.498.55l.001.007.29 3.4A.5.5 0 0 1 3.9 7.5h-.782c-.696 0-1.182-.497-1.469-.872a.459.459 0 0 0-.118-.115.112.112 0 0 0-.025-.012L1.5 6.5h-.003a.213.213 0 0 0-.064.039.86.86 0 0 0-.193.27C1.1 7.09 1 7.51 1 8c0 .491.1.912.24 1.19.07.14.14.225.194.271a.213.213 0 0 0 .063.039H1.5l.006-.001a.112.112 0 0 0 .025-.012.459.459 0 0 0 .118-.115c.287-.375.773-.872 1.469-.872H3.9a.5.5 0 0 1 .498.542l-.29 3.408a.5.5 0 0 0 .497.55h1.878c-.048-.166-.195-.352-.463-.557-.274-.21-.52-.528-.52-.943 0-.568.447-.947.862-1.154C6.807 10.123 7.387 10 8 10s1.193.123 1.638.346c.415.207.862.586.862 1.154 0 .415-.246.733-.52.943-.268.205-.415.39-.463.557h1.878a.5.5 0 0 0 .498-.55l-.001-.007-.29-3.4A.5.5 0 0 1 12.1 8.5h.782c.696 0 1.182.497 1.469.872.05.065.091.099.118.115.013.008.021.01.025.012a.02.02 0 0 0 .006.001h.003a.214.214 0 0 0 .064-.039.86.86 0 0 0 .193-.27c.14-.28.24-.7.24-1.191 0-.492-.1-.912-.24-1.19a.86.86 0 0 0-.194-.271.215.215 0 0 0-.063-.039H14.5l-.006.001a.113.113 0 0 0-.025.012.459.459 0 0 0-.118.115c-.287.375-.773.872-1.469.872H12.1a.5.5 0 0 1-.498-.543l.29-3.407a.5.5 0 0 0-.497-.55H9.517c.048.166.195.352.463.557.274.21.52.528.52.943 0 .568-.447.947-.862 1.154C9.193 5.877 8.613 6 8 6s-1.193-.123-1.638-.346C5.947 5.447 5.5 5.068 5.5 4.5c0-.415.246-.733.52-.943.268-.205.415-.39.463-.557H4.605z" />
        </symbol>
        <symbol id="search" viewBox="0 0 16 16">
            <path
                d="M11.742 10.344a6.5 6.5 0 1 0-1.397 1.398h-.001c.03.04.062.078.098.115l3.85 3.85a1 1 0 0 0 1.415-1.414l-3.85-3.85a1.007 1.007 0 0 0-.115-.1zM12 6.5a5.5 5.5 0 1 1-11 0 5.5 5.5 0 0 1 11 0z" />
        </symbol>
        <symbol id="globe" viewBox="0 0 16 16">
            <path
                d="M0 8a8 8 0 1 1 16 0A8 8 0 0 1 0 8zm7.5-6.923c-.67.204-1.335.82-1.887 1.855A7.97 7.97 0 0 0 5.145 4H7.5V1.077zM4.09 4a9.267 9.267 0 0 1 .64-1.539 6.7 6.7 0 0 1 .597-.933A7.025 7.025 0 0 0 2.255 4H4.09zm-.582 3.5c.03-.877.138-1.718.312-2.5H1.674a6.958 6.958 0 0 0-.656 2.5h2.49zM4.847 5a12.5 12.5 0 0 0-.338 2.5H7.5V5H4.847zM8.5 5v2.5h2.99a12.495 12.495 0 0 0-.337-2.5H8.5zM4.51 8.5a12.5 12.5 0 0 0 .337 2.5H7.5V8.5H4.51zm3.99 0V11h2.653c.187-.765.306-1.608.338-2.5H8.5zM5.145 12c.138.386.295.744.468 1.068.552 1.035 1.218 1.65 1.887 1.855V12H5.145zm.182 2.472a6.696 6.696 0 0 1-.597-.933A9.268 9.268 0 0 1 4.09 12H2.255a7.024 7.024 0 0 0 3.072 2.472zM3.82 11a13.652 13.652 0 0 1-.312-2.5h-2.49c.062.89.291 1.733.656 2.5H3.82zm6.853 3.472A7.024 7.024 0 0 0 13.745 12H11.91a9.27 9.27 0 0 1-.64 1.539 6.688 6.688 0 0 1-.597.933zM8.5 12v2.923c.67-.204 1.335-.82 1.887-1.855.173-.324.33-.682.468-1.068H8.5zm3.68-1h2.146c.365-.767.594-1.61.656-2.5h-2.49a13.65 13.65 0 0 1-.312 2.5zm2.802-3.5a6.959 6.959 0 0 0-.656-2.5H12.18c.174.782.282 1.623.312 2.5h2.49zM11.27 2.461c.247.464.462.98.64 1.539h1.835a7.024 7.024 0 0 0-3.072-2.472c.218.284.418.598.597.933zM10.855 4a7.966 7.966 0 0 0-.468-1.068C9.835 1.897 9.17 1.282 8.5 1.077V4h2.355z" />
        </symbol>
        <symbol id="sign-stop" width="16" height="16" fill="currentColor" viewBox="0 0 16 16">
            <path
                d="M10.371 8.277v-.553c0-.827-.422-1.234-.987-1.234-.572 0-.99.407-.99 1.234v.553c0 .83.418 1.237.99 1.237.565 0 .987-.408.987-1.237Zm2.586-.24c.463 0 .735-.272.735-.744s-.272-.741-.735-.741h-.774v1.485h.774Z" />
            <path
                d="M4.893 0a.5.5 0 0 0-.353.146L.146 4.54A.5.5 0 0 0 0 4.893v6.214a.5.5 0 0 0 .146.353l4.394 4.394a.5.5 0 0 0 .353.146h6.214a.5.5 0 0 0 .353-.146l4.394-4.394a.5.5 0 0 0 .146-.353V4.893a.5.5 0 0 0-.146-.353L11.46.146A.5.5 0 0 0 11.107 0H4.893ZM3.16 10.08c-.931 0-1.447-.493-1.494-1.132h.653c.065.346.396.583.891.583.524 0 .83-.246.83-.62 0-.303-.203-.467-.637-.572l-.656-.164c-.61-.147-.978-.51-.978-1.078 0-.706.597-1.184 1.444-1.184.853 0 1.386.475 1.436 1.087h-.645c-.064-.32-.352-.542-.797-.542-.472 0-.77.246-.77.6 0 .261.196.437.553.522l.654.161c.673.164 1.06.487 1.06 1.11 0 .736-.574 1.228-1.544 1.228Zm3.427-3.51V10h-.665V6.57H4.753V6h3.006v.568H6.587Zm4.458 1.16v.544c0 1.131-.636 1.805-1.661 1.805-1.026 0-1.664-.674-1.664-1.805V7.73c0-1.136.638-1.807 1.664-1.807 1.025 0 1.66.674 1.66 1.807ZM11.52 6h1.535c.82 0 1.316.55 1.316 1.292 0 .747-.501 1.289-1.321 1.289h-.865V10h-.665V6.001Z" />
        </symbol>
        <symbol id="person-circle" xmlns="http://www.w3.org/2000/svg" width="16" height="16" fill="currentColor" viewBox="0 0 16 16">
            <path d="M11 6a3 3 0 1 1-6 0 3 3 0 0 1 6 0z"/>
            <path fill-rule="evenodd" d="M0 8a8 8 0 1 1 16 0A8 8 0 0 1 0 8zm8-7a7 7 0 0 0-5.468 11.37C3.242 11.226 4.805 10 8 10s4.757 1.225 5.468 2.37A7 7 0 0 0 8 1z"/>
        </symbol>
    </svg>